<?xml version="1.0" encoding="UTF-8"?>
<svg xmlns="http://www.w3.org/2000/svg" width="512" height="512" viewBox="0 0 512 512" fill="none">
  <defs>
    <linearGradient id="gradSteel" x1="0" y1="0" x2="1" y2="1">
      <stop offset="0%" stop-color="#b7c3e0"/>
      <stop offset="50%" stop-color="#e8eefc"/>
      <stop offset="100%" stop-color="#9aa6c3"/>
    </linearGradient>
    <linearGradient id="gradBlue" x1="0" y1="0" x2="1" y2="1">
      <stop offset="0%" stop-color="#61dafb"/>
      <stop offset="100%" stop-color="#8be9fd"/>
    </linearGradient>
    <radialGradient id="gradGlow" cx="50%" cy="50%" r="50%">
      <stop offset="0%" stop-color="#61dafb" stop-opacity="0.5"/>
      <stop offset="80%" stop-color="#0a1224" stop-opacity="0.1"/>
      <stop offset="100%" stop-color="transparent"/>
    </radialGradient>
  </defs>

  <!-- Glow background -->
  <circle cx="256.0" cy="256.0" r="230" fill="url(#gradGlow)" opacity="0.25"/>

  <!-- Shield outline -->
  <path d="M 256.0,60
           C 386.0,80 436.0,160 436.0,260
           C 436.0,370 356.0,440 256.0,460
           C 156.0,440 76.0,370 76.0,260
           C 76.0,160 126.0,80 256.0,60 Z"
        fill="#0a1224" stroke="url(#gradSteel)" stroke-width="10"/>

  <!-- Inner chip body -->
  <rect x="176.0" y="196.0" width="160" height="120" rx="10" ry="10"
        fill="url(#gradSteel)" stroke="url(#gradBlue)" stroke-width="5" opacity="0.95"/>

  <!-- Chip pins -->
  <g stroke="url(#gradBlue)" stroke-width="6" stroke-linecap="round">
    <!-- Left -->
    <line x1="166.0" y1="216.0" x2="136.0" y2="216.0"/>
    <line x1="166.0" y1="246.0" x2="136.0" y2="246.0"/>
    <line x1="166.0" y1="276.0" x2="136.0" y2="276.0"/>
    <!-- Right -->
    <line x1="346.0" y1="216.0" x2="376.0" y2="216.0"/>
    <line x1="346.0" y1="246.0" x2="376.0" y2="246.0"/>
    <line x1="346.0" y1="276.0" x2="376.0" y2="276.0"/>
    <!-- Top -->
    <line x1="226.0" y1="186.0" x2="226.0" y2="156.0"/>
    <line x1="256.0" y1="186.0" x2="256.0" y2="156.0"/>
    <line x1="286.0" y1="186.0" x2="286.0" y2="156.0"/>
    <!-- Bottom -->
    <line x1="226.0" y1="326.0" x2="226.0" y2="356.0"/>
    <line x1="256.0" y1="326.0" x2="256.0" y2="356.0"/>
    <line x1="286.0" y1="326.0" x2="286.0" y2="356.0"/>
  </g>

  <!-- Inner circuit traces -->
  <g stroke="url(#gradBlue)" stroke-width="3" opacity="0.8">
    <path d="M 216.0,226.0 h80 v60 h-80 z" fill="none"/>
    <path d="M 256.0,226.0 v-40"/>
    <path d="M 256.0,286.0 v40"/>
    <path d="M 216.0,256.0 h-40"/>
    <path d="M 296.0,256.0 h40"/>
  </g>

  <!-- Core node -->
  <circle cx="256.0" cy="256.0" r="16" fill="url(#gradBlue)" stroke="url(#gradSteel)" stroke-width="3"/>

  <!-- Outer accent ring -->
  <circle cx="256.0" cy="256.0" r="210" stroke="url(#gradBlue)" stroke-width="2" opacity="0.25" fill="none"/>
</svg>
